<svg 
  xmlns="http://www.w3.org/2000/svg" 
  xmlns:xlink="http://www.w3.org/1999/xlink" 
  width='600' height='272'

  viewBox="110 60 800 400" 
>




<g id="AG-TRANSPORT">
	<g id="POLYLINE_284_">
		
			<line fill="none" stroke="#F368E0" stroke-width="2.5" stroke-linecap="round" stroke-linejoin="round" stroke-miterlimit="10" x1="787.525" y1="122.033" x2="830.074" y2="194.752"/>
	</g>
	<g id="POLYLINE_285_">
		
			<path fill="none" stroke="#F368E0" stroke-width="2.5" stroke-linecap="round" stroke-linejoin="round" stroke-miterlimit="10" d="    M833.936,199.951c6.309,0,12.617,0,18.926,0c3.19,0,6.38,0,9.57,0c0.81,0,1.592-0.023,2.361,0.277    c2.121,0.827,2.528,2.967,3.168,4.915c2.024,6.153,4.062,12.298,5.996,18.48c1.769,5.654,3.41,11.344,5.022,17.045    c1.482,5.244,2.824,10.539,4.047,15.849c1.349,5.857,2.572,11.734,3.672,17.643c1.011,5.431,1.863,10.9,2.59,16.377    c0.753,5.667,1.412,11.351,1.904,17.048c0.5,5.784,0.929,11.573,1.221,17.371c0.076,1.512,0.143,3.025,0.215,4.537"/>
	</g>
	<g id="POLYLINE_286_">
		
			<line fill="none" stroke="#F368E0" stroke-width="2.5" stroke-linecap="round" stroke-linejoin="round" stroke-miterlimit="10" x1="621.561" y1="199.951" x2="830.074" y2="199.951"/>
	</g>
	<g id="POLYLINE_287_">
		
			<path fill="none" stroke="#F368E0" stroke-width="2.5" stroke-linecap="round" stroke-linejoin="round" stroke-miterlimit="10" d="    M134.156,199.931c2.828,0.001,5.657,0.001,8.485,0.002c6.845,0.001,13.69,0.003,20.535,0.004    c8.402,0.002,16.804,0.004,25.206,0.005c7.499,0.002,14.997,0.003,22.496,0.005c4.135,0.001,8.271,0.002,12.406,0.003    c0.524,0,1.047,0,1.571,0c1.348,0,2.696,0,4.043,0c2.346,0,4.692,0,7.038,0c3.286,0,6.572,0,9.859,0c4.143,0,8.286,0,12.429,0    c4.923,0,9.847,0,14.77,0c5.627,0,11.255,0,16.882,0c6.255,0,12.51,0,18.765,0c6.779,0,13.557,0,20.336,0    c7.279,0,14.559,0,21.838,0c7.678,0,15.356,0,23.035,0c8.001,0,16.001,0,24.002,0c8.247,0,16.494,0,24.74,0    c8.417,0,16.833,0,25.25,0c8.51,0,17.02,0,25.53,0c8.527,0,17.054,0,25.581,0c8.467,0,16.935,0,25.402,0    c8.332,0,16.664,0,24.995,0c8.089,0,16.177,0,24.265,0c7.833,0,15.665,0,23.498,0c7.468,0,14.936,0,22.404,0    c7.027,0,14.054,0,21.081,0c6.51,0,13.02,0,19.53,0c5.916,0,11.832,0,17.749,0c5.227,0,10.454,0,15.682,0    c4.503,0,9.006,0,13.509,0c3.681,0,7.361,0,11.042,0c2.782,0,5.564,0,8.345,0c1.807,0,3.613,0,5.42,0c0.755,0,1.51-0.001,2.265,0    c4.699,0.009,9.4,0.018,14.099,0.059c5.429,0.048,10.861,0.143,16.287,0.331c5.866,0.203,11.728,0.443,17.582,0.879    c5.639,0.42,11.269,0.993,16.87,1.779c5.46,0.766,10.89,1.809,16.215,3.244c5.085,1.37,10.053,3.106,14.884,5.202"/>
	</g>
	<g id="POLYLINE_288_">
		
			<path fill="none" stroke="#F368E0" stroke-width="2.5" stroke-linecap="round" stroke-linejoin="round" stroke-miterlimit="10" d="    M830.074,214.589c0-4.319,0-8.637,0-12.956c0-6.575,0-13.15,0-19.725c0-0.856,0-1.711,0-2.567c0-0.446-0.108-0.6,0.2-0.739    c0.557-0.252,1.803,0,2.416,0c0.197,0,1.113-0.132,1.245,0.01c0.135,0.144,0,1.069,0,1.253c0,5.945,0,11.891,0,17.836    c0,5.214,0,10.427,0,15.641c0,0.089,0,0.178,0,0.268"/>
	</g>
	<g id="POLYLINE_289_">
		
			<path fill="none" stroke="#F368E0" stroke-width="2.5" stroke-linecap="round" stroke-linejoin="round" stroke-miterlimit="10" d="    M834.74,178.602c0.686-1.144,0.816-2.569,0.345-3.817c-0.473-1.254-1.518-2.243-2.797-2.646c-0.714-0.225-1.482-0.263-2.214-0.111    "/>
	</g>
	<g id="POLYLINE_290_">
		
			<line fill="none" stroke="#F368E0" stroke-width="2.5" stroke-linecap="round" stroke-linejoin="round" stroke-miterlimit="10" x1="833.936" y1="178.602" x2="834.74" y2="178.602"/>
	</g>
	<g id="POLYLINE_291_">
		
			<path fill="none" stroke="#F368E0" stroke-width="2.5" stroke-linecap="round" stroke-linejoin="round" stroke-miterlimit="10" d="    M830.074,165.325c0,5.981,0,11.962,0,17.943c0,0.11,0.075,0.587,0,0.672c-0.141,0.163-1.972,0.074-2.198,0.001    c-0.4-0.128-0.208,0.08-0.284-0.357c-0.078-0.454,0-0.993,0-1.453c0-3.732,0-7.463,0-11.195c0-1.646,0-3.292,0-4.938    c0-0.121-0.065-0.601,0.02-0.674c0.174-0.149,1.081,0,1.319,0C829.312,165.325,829.693,165.325,830.074,165.325z"/>
	</g>
	<g id="POLYLINE_292_">
		
			<path fill="none" stroke="#F368E0" stroke-width="2.5" stroke-linecap="round" stroke-linejoin="round" stroke-miterlimit="10" d="    M831.054,223.632c-1.134-0.004-0.98-1.299-0.98-2.059c0-1.592,0-3.183,0-4.775c0-0.729-0.127-1.581,0.004-2.302    c0.055-0.302,0.18-0.561,0.447-0.732c0.129-0.082,0.263-0.118,0.41-0.148c0.942-0.187,2.084-0.007,3.041-0.007    c0.451,0,0.901-0.054,1.242,0.293c0.288,0.293,0.276,0.64,0.281,1.024c0.018,1.429,0,2.859,0,4.287c0,1.113,0.14,2.326,0,3.432    c-0.171,1.352-1.706,0.986-2.713,0.986C832.209,223.632,831.631,223.632,831.054,223.632z"/>
	</g>
	<g id="POLYLINE_293_">
		
			<line fill="none" stroke="#F368E0" stroke-width="2.5" stroke-linecap="round" stroke-linejoin="round" stroke-miterlimit="10" x1="707.589" y1="199.951" x2="707.589" y2="126.184"/>
	</g>
	<g id="POLYLINE_294_">
		
			<path fill="none" stroke="#F368E0" stroke-width="2.5" stroke-linecap="round" stroke-linejoin="round" stroke-miterlimit="10" d="    M134.156,199.951c-1.739,0.003-3.684,0.099-5.248,0.968c-1.548,0.86-2.117,2.459-2.549,4.083    c-0.586,2.207-1.094,4.897-0.632,7.177c0.208,1.03,0.757,1.756,1.71,2.204c1.764,0.83,3.798,0.74,5.704,0.741    c1.571,0,3.141,0.001,4.712,0.001c2.913,0.001,5.827,0.001,8.74,0.002c4.136,0.001,8.272,0.002,12.409,0.002    c5.262,0.001,10.524,0.002,15.786,0.003c6.304,0.001,12.609,0.002,18.913,0.004c7.227,0.001,14.454,0.003,21.681,0.004    c8.019,0.001,16.037,0.003,24.056,0.005c8.755,0.002,17.51,0.003,26.265,0.005c9.362,0.002,18.725,0.004,28.087,0.005    c9.834,0.002,19.668,0.004,29.502,0.006c10.229,0.002,20.458,0.004,30.687,0.006c10.553,0.002,21.106,0.004,31.658,0.006    c10.74,0.002,21.481,0.004,32.221,0.006c10.79,0.002,21.579,0.004,32.369,0.006c10.801,0.002,21.601,0.004,32.402,0.006    c10.673,0.002,21.346,0.004,32.019,0.006c10.409,0.002,20.818,0.004,31.226,0.006c10.073,0.002,20.147,0.004,30.22,0.006    c9.663,0.002,19.326,0.004,28.989,0.005c9.115,0.002,18.231,0.003,27.346,0.005c8.438,0.002,16.876,0.003,25.314,0.005    c7.708,0.001,15.415,0.003,23.123,0.004c6.845,0.001,13.69,0.003,20.536,0.004c5.861,0.001,11.722,0.002,17.583,0.003    c4.795,0.001,9.59,0.002,14.386,0.003c3.634,0.001,7.269,0.001,10.903,0.002c2.352,0,4.704,0.001,7.056,0.001    c0.964,0,1.927-0.006,2.891,0.001c5.909,0.038,11.828,0.158,17.732,0.389c7.163,0.28,14.326,0.65,21.463,1.338    c7.004,0.675,13.996,1.616,20.851,3.233c6.535,1.542,12.929,3.708,18.943,6.71c6.124,3.057,11.743,6.997,16.954,11.418    c5.416,4.595,10.387,9.722,14.837,15.257c4.2,5.223,7.953,10.812,11.193,16.68c3.242,5.872,5.812,12.059,7.614,18.522    c1.878,6.737,3.008,13.651,3.807,20.591c0.77,6.681,1.149,13.396,1.422,20.113"/>
	</g>
	<g id="POLYLINE_295_">
		
			<line fill="none" stroke="#F368E0" stroke-width="2.5" stroke-linecap="round" stroke-linejoin="round" stroke-miterlimit="10" x1="411.873" y1="188.135" x2="411.873" y2="122.033"/>
	</g>
	<g id="POLYLINE_296_">
		
			<line fill="none" stroke="#F368E0" stroke-width="2.5" stroke-linecap="round" stroke-linejoin="round" stroke-miterlimit="10" x1="525.953" y1="359.695" x2="525.953" y2="122.033"/>
	</g>
	<g id="POLYLINE_297_">
		
			<line fill="none" stroke="#F368E0" stroke-width="2.5" stroke-linecap="round" stroke-linejoin="round" stroke-miterlimit="10" x1="640.032" y1="188.135" x2="640.032" y2="122.033"/>
	</g>
	<g id="POLYLINE_298_">
		
			<path fill="none" stroke="#F368E0" stroke-width="2.5" stroke-linecap="round" stroke-linejoin="round" stroke-miterlimit="10" d="    M648.511,199.951c0.593-1.179,0.25-3.049,0.25-4.291c0-4.262,0-8.525,0-12.787c0-11.491,0-22.982,0-34.472    c0-3.642,0-7.283,0-10.925c0-1.648-0.026-3.297,0.372-4.911c0.958-3.885,4.114-5.911,7.958-6.294    c3.853-0.384,7.855-0.086,11.716-0.086c9.355,0,18.71,0,28.065,0c11.965,0,23.929,0,35.894,0c10.866,0,21.732,0,32.597,0    c6.267,0,12.535,0,18.802,0c2.481,0,4.64,0.358,6.524,2.15c0.87,0.827,1.581,1.81,2.187,2.842"/>
	</g>
	<g id="POLYLINE_299_">
		
			<path fill="none" stroke="#F368E0" stroke-width="2.5" stroke-linecap="round" stroke-linejoin="round" stroke-miterlimit="10" d="    M758.913,130.668c5.154,0,10.309,0,15.463,0c3.064,0,6.128,0,9.192,0c1.109,0,2.378-0.157,3.439,0.248    c0.927,0.354,1.557,1.029,2.053,1.861c0.737,1.238,1.456,2.488,2.184,3.732c3.148,5.38,6.296,10.76,9.444,16.14    c3.498,5.979,6.996,11.957,10.495,17.936c1.654,2.827,3.345,5.635,4.96,8.484c1.366,2.41,2.846,5.324,2.601,8.19    c-0.18,2.106-1.586,3.576-3.497,4.312c-3.091,1.191-6.668,0.85-9.915,0.85c-6.421,0-12.843,0-19.264,0c-0.472,0-0.943,0-1.415,0"/>
	</g>
	<g id="POLYLINE_300_">
		
			<line fill="none" stroke="#F368E0" stroke-width="2.5" stroke-linecap="round" stroke-linejoin="round" stroke-miterlimit="10" x1="757.044" y1="126.184" x2="787.791" y2="199.951"/>
	</g>
	<g id="POLYLINE_301_">
		
			<line fill="none" stroke="#F368E0" stroke-width="2.5" stroke-linecap="round" stroke-linejoin="round" stroke-miterlimit="10" x1="817.729" y1="122.033" x2="863.32" y2="199.951"/>
	</g>
	<g id="POLYLINE_302_">
		
			<path fill="none" stroke="#F368E0" stroke-width="2.5" stroke-linecap="round" stroke-linejoin="round" stroke-miterlimit="10" d="    M645.371,326.14c0-4.642,0-9.285,0-13.927c0-10.798,0-21.596,0-32.393c0-12.429,0-24.858,0-37.287c0-9.536,0-19.071,0-28.607    c0-2.281,0-4.562,0-6.843c0-1.841,0.947-3.097,1.835-4.731c0.435-0.8,0.876-1.597,1.304-2.401"/>
	</g>
	<g id="POLYLINE_303_">
		
			<path fill="none" stroke="#F368E0" stroke-width="2.5" stroke-linecap="round" stroke-linejoin="round" stroke-miterlimit="10" d="    M634.873,82.226c5.288,0.243,10.577,0.486,15.865,0.729c9.645,0.443,19.289,0.886,28.934,1.329    c4.775,0.219,9.555,0.393,14.328,0.661c7.4,0.417,14.801,0.859,22.197,1.333c6.324,0.405,12.648,0.882,18.965,1.381    c6.775,0.535,13.54,1.182,20.299,1.891c6.295,0.661,12.587,1.432,18.844,2.39c6.604,1.012,13.207,2.132,19.705,3.701    c6.027,1.456,12.025,3.428,17.327,6.705c5.328,3.293,9.643,7.864,13.146,13.023c0.858,1.263,1.662,2.56,2.445,3.87"/>
	</g>
	<g id="POLYLINE_304_">
		
			<path fill="none" stroke="#F368E0" stroke-width="2.5" stroke-linecap="round" stroke-linejoin="round" stroke-miterlimit="10" d="    M650.42,105.661c0-2.2-0.568-5.087,0.867-7.02c0.829-1.117,2.116-1.732,3.493-1.776c2.107-0.068,4.227,0,6.335,0    c5.303,0,10.606,0,15.909,0c6.882,0,13.765,0,20.647,0c6.837,0,13.674,0,20.51,0c5.149,0,10.297,0,15.446,0    c1.969,0,3.977-0.117,5.944,0.007c1.367,0.086,2.639,0.799,3.405,1.94c0.378,0.563,0.622,1.212,0.71,1.884    c0.234,1.794,0.037,3.688,0.037,5.497c0,2.235-0.033,4.255-1.275,6.197c-0.996,1.556-2.523,2.74-4.277,3.319    c-1.413,0.466-2.853,0.406-4.318,0.406c-4.183,0-8.366,0-12.548,0c-6.549,0-13.097,0-19.646,0c-6.967,0-13.935,0-20.902,0    c-5.439,0-10.877,0-16.316,0c-2.093,0-4.206,0.088-6.298-0.008c-1.774-0.081-3.497-0.753-4.855-1.9    c-1.394-1.177-2.362-2.82-2.715-4.61C650.319,108.306,650.42,106.964,650.42,105.661z"/>
	</g>
	<g id="POLYLINE_305_">
		
			<path fill="none" stroke="#F368E0" stroke-width="2.5" stroke-linecap="round" stroke-linejoin="round" stroke-miterlimit="10" d="    M536.341,105.661c0-2.2-0.568-5.087,0.867-7.02c0.829-1.117,2.117-1.732,3.493-1.776c2.107-0.068,4.227,0,6.335,0    c5.303,0,10.606,0,15.909,0c6.882,0,13.765,0,20.647,0c6.837,0,13.674,0,20.51,0c5.149,0,10.297,0,15.446,0    c1.969,0,3.977-0.117,5.944,0.007c1.367,0.086,2.639,0.799,3.405,1.94c0.378,0.563,0.622,1.212,0.71,1.884    c0.234,1.794,0.037,3.688,0.037,5.497c0,2.235-0.033,4.255-1.275,6.197c-0.996,1.556-2.523,2.74-4.277,3.319    c-1.413,0.466-2.853,0.406-4.318,0.406c-4.183,0-8.366,0-12.548,0c-6.549,0-13.097,0-19.646,0c-6.967,0-13.935,0-20.902,0    c-5.439,0-10.877,0-16.316,0c-2.093,0-4.206,0.088-6.298-0.008c-1.774-0.081-3.497-0.753-4.855-1.9    c-1.394-1.177-2.362-2.82-2.715-4.61C536.24,108.306,536.341,106.964,536.341,105.661z"/>
	</g>
	<g id="POLYLINE_306_">
		
			<path fill="none" stroke="#F368E0" stroke-width="2.5" stroke-linecap="round" stroke-linejoin="round" stroke-miterlimit="10" d="    M422.261,105.661c0-2.2-0.568-5.087,0.867-7.02c0.829-1.117,2.116-1.732,3.493-1.776c2.107-0.068,4.227,0,6.335,0    c5.303,0,10.606,0,15.909,0c6.882,0,13.765,0,20.647,0c6.837,0,13.674,0,20.51,0c5.149,0,10.297,0,15.446,0    c1.969,0,3.977-0.117,5.944,0.007c1.367,0.086,2.639,0.799,3.405,1.94c0.378,0.563,0.622,1.212,0.71,1.884    c0.234,1.794,0.037,3.688,0.037,5.497c0,2.235-0.033,4.255-1.275,6.197c-0.996,1.556-2.523,2.74-4.277,3.319    c-1.413,0.466-2.853,0.406-4.318,0.406c-4.183,0-8.366,0-12.548,0c-6.549,0-13.097,0-19.646,0c-6.967,0-13.935,0-20.902,0    c-5.439,0-10.877,0-16.316,0c-2.093,0-4.206,0.088-6.298-0.008c-1.774-0.081-3.497-0.753-4.855-1.9    c-1.394-1.177-2.362-2.82-2.715-4.61C422.16,108.306,422.261,106.964,422.261,105.661z"/>
	</g>
	<g id="POLYLINE_307_">
		
			<path fill="none" stroke="#F368E0" stroke-width="2.5" stroke-linecap="round" stroke-linejoin="round" stroke-miterlimit="10" d="    M308.182,105.661c0-2.2-0.568-5.087,0.867-7.02c0.829-1.117,2.117-1.732,3.493-1.776c2.107-0.068,4.227,0,6.335,0    c5.303,0,10.606,0,15.909,0c6.882,0,13.765,0,20.647,0c6.837,0,13.674,0,20.51,0c5.149,0,10.297,0,15.446,0    c1.969,0,3.977-0.117,5.944,0.007c1.367,0.086,2.639,0.799,3.405,1.94c0.378,0.563,0.622,1.212,0.71,1.884    c0.234,1.794,0.037,3.688,0.037,5.497c0,2.235-0.033,4.255-1.275,6.197c-0.996,1.556-2.523,2.74-4.277,3.319    c-1.413,0.466-2.853,0.406-4.318,0.406c-4.183,0-8.366,0-12.548,0c-6.549,0-13.097,0-19.646,0c-6.967,0-13.935,0-20.902,0    c-5.439,0-10.877,0-16.316,0c-2.093,0-4.206,0.088-6.298-0.008c-1.774-0.081-3.497-0.753-4.855-1.9    c-1.394-1.177-2.362-2.82-2.715-4.61C308.081,108.306,308.182,106.964,308.182,105.661z"/>
	</g>
	<g id="POLYLINE_308_">
		
			<path fill="none" stroke="#F368E0" stroke-width="2.5" stroke-linecap="round" stroke-linejoin="round" stroke-miterlimit="10" d="    M302.02,86.153c0-1.818,0.411-4.21,2.557-4.507c0.864-0.12,1.814,0.092,2.669,0.168c1.441,0.128,2.883,0.232,4.326,0.327    c2.885,0.189,5.774,0.303,8.664,0.37c5.878,0.136,11.76,0.026,17.63-0.304c5.874-0.33,11.731-0.953,17.546-1.844    c2.93-0.449,5.84-1,8.751-1.555c2.579-0.492,5.188-0.082,7.785,0.091c5.915,0.395,11.841,0.609,17.768,0.736    c5.821,0.125,11.647,0.096,17.467-0.06c5.922-0.159,11.84-0.442,17.748-0.886c2.965-0.223,5.928-0.469,8.887-0.762    c2.66-0.263,5.347-0.724,8.015-0.823c2.751-0.102,5.569,0.284,8.311,0.45c2.671,0.162,5.341,0.308,8.014,0.442    c6.024,0.302,12.047,0.584,18.078,0.71c5.866,0.123,11.742,0.157,17.607-0.005c5.774-0.159,11.551-0.343,17.317-0.71    c6.663-0.424,13.319-0.879,19.976-1.383c4.829-0.366,9.626,0.189,14.458,0.446c6.2,0.33,12.402,0.563,18.607,0.78    c5.373,0.187,10.751,0.314,16.127,0.365c6.727,0.065,13.447,0.084,20.174,0.061c5.283-0.018,10.573-0.077,15.853-0.239    c3.744-0.115,7.488-0.229,11.232-0.344c1.256-0.038,2.525-0.161,3.76,0.135c2.401,0.576,3.527,2.636,3.527,4.968    c0,1.928,0,3.856,0,5.784c0,0.713,0.07,1.456-0.176,2.14c-0.408,1.135-1.462,1.886-2.653,1.97    c-0.969,0.069-1.965,0.004-2.935,0.004c-2.706,0-5.413,0-8.12,0c-4.266,0-8.531,0-12.797,0c-5.627,0-11.254,0-16.882,0    c-6.726,0-13.452,0-20.178,0c-7.622,0-15.245,0-22.867,0c-8.33,0-16.66,0-24.989,0c-8.755,0-17.509,0-26.264,0    c-8.988,0-17.977,0-26.965,0c-9.034,0-18.069,0-27.103,0c-8.793,0-17.585,0-26.378,0c-8.363,0-16.727,0-25.09,0    c-7.741,0-15.481,0-23.222,0c-6.84,0-13.679,0-20.519,0c-5.748,0-11.496,0-17.243,0c-4.449,0-8.898,0-13.347,0    c-2.896,0-5.792,0-8.688,0c-1.139,0-2.286,0.042-3.424,0C301.463,92.547,302.02,88.655,302.02,86.153z"/>
	</g>
	<g id="POLYLINE_309_">
		
			<line fill="none" stroke="#F368E0" stroke-width="2.5" stroke-linecap="round" stroke-linejoin="round" stroke-miterlimit="10" x1="405.204" y1="79.628" x2="389.054" y2="79.628"/>
	</g>
	<g id="POLYLINE_310_">
		
			<path fill="none" stroke="#F368E0" stroke-width="2.5" stroke-linecap="round" stroke-linejoin="round" stroke-miterlimit="10" d="    M125.488,347.823c-0.484-9.084-0.909-18.159-1.244-27.25c-0.308-8.375-0.366-16.779-0.337-25.159    c0.029-8.556,0.235-17.113,0.567-25.662c0.329-8.489,0.756-16.978,1.319-25.455c0.6-9.03,1.347-18.043,2.245-27.048    c0.085-0.85,0.17-1.7,0.254-2.551"/>
	</g>
	<g id="POLYLINE_311_">
		
			<line fill="none" stroke="#F368E0" stroke-width="2.5" stroke-linecap="round" stroke-linejoin="round" stroke-miterlimit="10" x1="126.501" y1="362.491" x2="126.073" y2="356.669"/>
	</g>
	<g id="POLYLINE_312_">
		
			<path fill="none" stroke="#F368E0" stroke-width="2.5" stroke-linecap="round" stroke-linejoin="round" stroke-miterlimit="10" d="    M131.504,362.491c-5.075-5.852-10.815-11.068-16.83-15.936c-0.835-0.676-1.796-1.832-2.864-2.149    c-0.218-0.065-0.435-0.05-0.66-0.055c-1.286-0.025-2.575,0-3.861,0c-1.028,0-2.864,0.398-3.318-0.932    c-0.076-0.223-0.067-0.437-0.073-0.669c-0.029-1.005-0.1-2.091,0-3.093c0.038-0.375,0.147-0.707,0.428-0.974    c0.274-0.26,0.591-0.344,0.955-0.378c2.071-0.191,4.265-0.029,6.346,0c1.068,0.015,2.084,0.242,3.039,0.727    c0.754,0.383,1.399,0.908,2.058,1.432c1.507,1.198,3.011,2.399,4.481,3.643c5.886,4.981,11.701,10.263,16.458,16.361    c0.513,0.658,1.013,1.328,1.476,2.023"/>
	</g>
	<g id="POLYLINE_313_">
		
			<path fill="none" stroke="#F368E0" stroke-width="2.5" stroke-linecap="round" stroke-linejoin="round" stroke-miterlimit="10" d="    M109.685,338.305c-0.609-1.894-1.102-3.873-1.843-5.719c-0.351-0.876-1.012-1.587-1.889-1.954    c-1.443-0.604-3.347-0.268-4.85-0.268c-1.107,0-2.14-0.031-3.081,0.644c-1.467,1.05-1.439,2.632-1.439,4.241    c0,4.27,0,8.54,0,12.809c0,10.857,0,21.713,0,32.57c0,3.226-0.327,7.152,2.447,9.435c1.176,0.968,2.687,1.393,4.182,1.521    c1.41,0.121,2.849,0.045,4.262,0.045c2.869,0,5.739,0,8.608,0c0.584,0,1.168,0,1.752,0"/>
	</g>
	<g id="POLYLINE_314_">
		
			<line fill="none" stroke="#F368E0" stroke-width="2.5" stroke-linecap="round" stroke-linejoin="round" stroke-miterlimit="10" x1="117.457" y1="362.491" x2="111.633" y2="344.367"/>
	</g>
	<g id="POLYLINE_315_">
		
			<path fill="none" stroke="#F368E0" stroke-width="2.5" stroke-linecap="round" stroke-linejoin="round" stroke-miterlimit="10" d="    M146.384,387.212c0,0.828-0.137,1.715,0.532,2.328c0.545,0.5,1.228,0.432,1.916,0.432c3.287,0,6.573,0,9.86,0    c0.805,0,1.9,0.206,2.618-0.299c0.841-0.591,0.697-1.581,0.697-2.491"/>
	</g>
	<g id="POLYLINE_316_">
		
			<path fill="none" stroke="#F368E0" stroke-width="2.5" stroke-linecap="round" stroke-linejoin="round" stroke-miterlimit="10" d="    M130.675,387.212c0,1.687,0.02,3.376,0,5.063c-0.009,0.776-0.07,1.556-0.308,2.299c-0.446,1.387-1.487,2.311-2.92,2.582    c-0.901,0.17-1.856,0.098-2.766,0.098c-1.933,0-4.021,0.233-5.94,0c-0.41-0.05-0.727-0.208-0.87-0.625    c-0.308-0.904-0.038-2.249-0.038-3.177c0-2.08,0-4.16,0-6.24"/>
	</g>
	<g id="POLYLINE_317_">
		
			<path fill="none" stroke="#F368E0" stroke-width="2.5" stroke-linecap="round" stroke-linejoin="round" stroke-miterlimit="10" d="    M102.51,369.594c8.681,0,17.363,0,26.044,0c6.129,0,12.259,0,18.388,0c3.098,0,6.279-0.208,9.373,0    c0.743,0.05,1.397,0.499,1.403,1.315c0.003,0.505-0.299,0.848-0.59,1.229c-1.701,2.221-3.402,4.442-5.103,6.662    c-0.954,1.246-1.343,2.269-2.932,2.269c-4.17,0-8.34,0-12.51,0c-10.671,0-21.342,0-32.013,0c-0.213,0-0.427,0-0.64,0"/>
	</g>
	<g id="POLYLINE_318_">
		
			<path fill="none" stroke="#F368E0" stroke-width="2.5" stroke-linecap="round" stroke-linejoin="round" stroke-miterlimit="10" d="    M113.864,362.491c6.072,0,12.143,0,18.215,0c10.241,0,20.482,0,30.723,0c2.933,0,5.866,0,8.799,0c1.226,0,2.382,0.051,3.26,1.055    c0.97,1.109,0.926,2.565,0.225,3.787c-2.08,3.625-4.254,7.199-6.38,10.797c-1.16,1.964-2.321,3.928-3.481,5.892    c-0.416,0.703-0.786,1.528-1.333,2.147c-0.916,1.037-2.122,1.043-3.389,1.043c-8.69,0-17.381,0-26.071,0    c-6.885,0-13.774,0.068-20.659,0c-3.606-0.036-7.036-1.264-8.987-4.445c-2.571-4.189-3.19-10.354-1.956-15.067    c0.816-3.114,3.654-4.408,6.621-4.895C110.909,362.565,112.389,362.497,113.864,362.491z"/>
	</g>
	<g id="POLYLINE_319_">
		
			<path fill="none" stroke="#F368E0" stroke-width="2.5" stroke-linecap="round" stroke-linejoin="round" stroke-miterlimit="10" d="    M177.15,371.692c-1.288,2.165-3.828,2.483-6.126,2.517"/>
	</g>
	<g id="POLYLINE_320_">
		
			<path fill="none" stroke="#F368E0" stroke-width="2.5" stroke-linecap="round" stroke-linejoin="round" stroke-miterlimit="10" d="    M176.18,396.663c-1.962,0-3.923,0.001-5.885,0c-0.644,0-1.236-0.029-1.802-0.377c-1.508-0.929-1.206-2.748-1.206-4.264    c0-2.23,0-4.46,0-6.691"/>
	</g>
	<g id="POLYLINE_321_">
		
			<path fill="none" stroke="#F368E0" stroke-width="2.5" stroke-linecap="round" stroke-linejoin="round" stroke-miterlimit="10" d="    M176.59,391.722c-3.844-2.491-7.691-5.009-11.232-7.923"/>
	</g>
	<g id="POLYLINE_322_">
		
			<path fill="none" stroke="#F368E0" stroke-width="2.5" stroke-linecap="round" stroke-linejoin="round" stroke-miterlimit="10" d="    M204.553,400.205c-5.807,0-11.615,0-17.422,0c-2.916,0-5.831,0-8.747,0c-0.589,0-1.209,0.082-1.696-0.32    c-0.554-0.457-0.507-1.095-0.507-1.751c0-1.713-0.028-3.428,0-5.14c0.005-0.296-0.004-0.569,0.118-0.846    c0.206-0.469,0.637-0.754,1.134-0.827c1.652-0.242,3.504-0.007,5.167-0.007c6.641,0,13.283,0,19.924,0c0.148,0,0.297,0,0.445,0"/>
	</g>
	<g id="POLYLINE_323_">
		
			<line fill="none" stroke="#F368E0" stroke-width="2.5" stroke-linecap="round" stroke-linejoin="round" stroke-miterlimit="10" x1="178.364" y1="369.654" x2="204.582" y2="369.654"/>
	</g>
	<g id="POLYLINE_324_">
		
			<line fill="none" stroke="#F368E0" stroke-width="2.5" stroke-linecap="round" stroke-linejoin="round" stroke-miterlimit="10" x1="186.82" y1="355.465" x2="213.224" y2="338.095"/>
	</g>
	<g id="POLYLINE_325_">
		
			<line fill="none" stroke="#F368E0" stroke-width="2.5" stroke-linecap="round" stroke-linejoin="round" stroke-miterlimit="10" x1="315.177" y1="338.095" x2="345.12" y2="364.207"/>
	</g>
	<g id="POLYLINE_326_">
		
			<line fill="none" stroke="#F368E0" stroke-width="2.5" stroke-linecap="round" stroke-linejoin="round" stroke-miterlimit="10" x1="350.357" y1="373.494" x2="343.081" y2="373.494"/>
	</g>
	<g id="POLYLINE_327_">
		
			<path fill="none" stroke="#F368E0" stroke-width="2.5" stroke-linecap="round" stroke-linejoin="round" stroke-miterlimit="10" d="    M325.488,378.184c1.709,3.022,5.022,4.898,8.496,4.786c3.468-0.112,6.667-2.196,8.169-5.324c1.503-3.128,1.131-6.928-0.949-9.705    c-2.072-2.767-5.592-4.192-9.005-3.648c-3.426,0.546-6.339,3.017-7.435,6.309c-0.134,0.402-0.24,0.813-0.32,1.229"/>
	</g>
	<g id="POLYLINE_328_">
		
			<path fill="none" stroke="#F368E0" stroke-width="2.5" stroke-linecap="round" stroke-linejoin="round" stroke-miterlimit="10" d="    M151.392,119.24c2.462-4.478,5.254-8.793,8.922-12.388c3.424-3.356,7.537-5.804,11.992-7.541c4.61-1.797,9.476-2.878,14.348-3.681    c4.392-0.724,8.827-1.231,13.263-1.599c2.814-0.234,5.632-0.425,8.447-0.637c6.045-0.456,12.089-0.912,18.134-1.368    c7.703-0.581,15.406-1.162,23.109-1.743c7.788-0.587,15.576-1.175,23.363-1.762c6.299-0.475,12.599-0.95,18.898-1.425    c3.237-0.244,6.475-0.488,9.712-0.733c0.147-0.011,0.293-0.022,0.44-0.033"/>
	</g>
	<g id="POLYLINE_329_">
		
			<path fill="none" stroke="#F368E0" stroke-width="2.5" stroke-linecap="round" stroke-linejoin="round" stroke-miterlimit="10" d="    M130.019,200.452c0.751-5.39,1.549-10.772,2.44-16.141c0.881-5.308,1.892-10.592,2.95-15.867    c1.034-5.153,2.226-10.276,3.507-15.372c1.229-4.886,2.624-9.743,4.242-14.515c1.692-4.992,3.63-9.893,5.885-14.658    c0.296-0.625,0.6-1.245,0.905-1.866"/>
	</g>
	<g id="POLYLINE_330_">
		
			<path fill="none" stroke="#F368E0" stroke-width="2.5" stroke-linecap="round" stroke-linejoin="round" stroke-miterlimit="10" d="    M831.929,120.436c-0.002-0.773-0.625-1.156-1.315-1.197c-0.681-0.04-1.377,0-2.06,0c-1.5,0-2.999,0-4.499,0c-2.28,0-4.56,0-6.84,0    c-2.999,0-5.997,0-8.996,0c-3.696,0-7.392,0-11.088,0c-4.339,0-8.677,0-13.016,0c-4.917,0-9.834,0-14.751,0    c-5.489,0-10.977,0-16.466,0c-5.974,0-11.948,0-17.922,0c-6.461,0-12.922,0-19.384,0c-6.882,0-13.764,0-20.645,0    c-7.229,0-14.459,0-21.688,0c-7.588,0-15.176,0-22.765,0c-7.845,0-15.689,0-23.534,0c-8.117,0-16.235,0-24.352,0    c-8.316,0-16.631,0-24.947,0c-8.437,0-16.873,0-25.31,0c-8.579,0-17.157,0-25.736,0c-8.61,0-17.221,0-25.831,0    c-8.664,0-17.328,0-25.993,0c-8.64,0-17.281,0-25.921,0c-8.539,0-17.079,0-25.618,0c-8.46,0-16.92,0-25.379,0    c-8.271,0-16.542,0-24.813,0c-8.102,0-16.204,0-24.306,0c-7.856,0-15.712,0-23.568,0c-7.537,0-15.074,0-22.611,0    c-7.232,0-14.464,0-21.696,0c-6.827,0-13.654,0-20.481,0c-6.43,0-12.861,0-19.291,0c-5.962,0-11.925,0-17.887,0    c-5.43,0-10.86,0-16.289,0c-4.895,0-9.79,0-14.684,0c-4.278,0-8.556,0-12.834,0c-3.65,0-7.3,0-10.95,0c-2.96,0-5.919,0-8.879,0    c-2.218,0-4.435,0-6.653,0c-1.448,0-2.897,0-4.345,0c-0.618,0-1.255-0.046-1.872,0c-0.932,0.069-1.404,0.77-1.262,1.7    c0.113,0.74,0.645,1.06,1.342,1.093c0.711,0.034,1.432,0,2.144,0c1.535,0,3.069,0,4.604,0c2.299,0,4.597,0,6.896,0    c3.036,0,6.072,0,9.108,0c3.722,0,7.443,0,11.165,0c4.345,0,8.689,0,13.034,0c4.957,0,9.914,0,14.871,0c5.487,0,10.974,0,16.461,0    c6.015,0,12.03,0,18.045,0c6.478,0,12.956,0,19.435,0c6.87,0,13.74,0,20.609,0c7.27,0,14.54,0,21.81,0c7.57,0,15.141,0,22.711,0    c7.885,0,15.769,0,23.654,0c8.126,0,16.251,0,24.377,0c8.29,0,16.58,0,24.87,0c8.474,0,16.948,0,25.422,0    c8.549,0,17.098,0,25.646,0c8.645,0,17.29,0,25.935,0c8.664,0,17.328,0,25.992,0c8.605,0,17.211,0,25.816,0    c8.569,0,17.138,0,25.707,0c8.422,0,16.845,0,25.267,0c8.297,0,16.593,0,24.889,0c8.093,0,16.187,0,24.28,0    c7.816,0,15.632,0,23.448,0c7.555,0,15.109,0,22.664,0c7.191,0,14.382,0,21.573,0c6.839,0,13.677,0,20.516,0    c6.413,0,12.827,0,19.24,0c5.922,0,11.843,0,17.765,0c5.431,0,10.862,0,16.293,0c4.855,0,9.71,0,14.565,0    c4.272,0,8.543,0,12.815,0c3.624,0,7.248,0,10.872,0c2.932,0,5.864,0,8.796,0c2.189,0,4.377,0,6.566,0c1.414,0,2.827,0,4.241,0    c0.588,0,1.2,0.048,1.787,0C831.63,121.956,831.942,121.32,831.929,120.436z"/>
	</g>
	<g id="POLYLINE_331_">
		
			<path fill="none" stroke="#F368E0" stroke-width="2.5" stroke-linecap="round" stroke-linejoin="round" stroke-miterlimit="10" d="    M875.918,277.505c-1.328-1.875-3.458-3.589-5.873-2.696c-3.879,1.434-5.493,6.887-6.347,10.437    c-1.486,6.177-1.591,12.82-0.486,19.068c0.506,2.859,1.281,5.74,2.627,8.327c0.781,1.501,1.798,3.024,3.247,3.958    c2.241,1.446,4.563,0.487,6.177-1.373c0.232-0.267,0.449-0.548,0.653-0.836"/>
	</g>
	<g id="POLYLINE_332_">
		
			<path fill="none" stroke="#F368E0" stroke-width="2.5" stroke-linecap="round" stroke-linejoin="round" stroke-miterlimit="10" d="    M883.992,295.947c-0.002-3.462-0.373-6.961-1.308-10.301c-0.713-2.546-1.802-5.508-3.95-7.219    c-4.099-3.263-7.306,2.659-8.396,5.881c-2.199,6.502-2.289,14.085-0.721,20.737c0.727,3.083,3.277,11.111,8.042,9.079    c2.072-0.884,3.307-3.236,4.116-5.205c1.356-3.3,1.943-6.92,2.145-10.466C883.968,297.618,883.991,296.782,883.992,295.947z"/>
	</g>
	<g id="POLYLINE_333_">
		
			<line fill="none" stroke="#F368E0" stroke-width="2.5" stroke-linecap="round" stroke-linejoin="round" stroke-miterlimit="10" x1="847.816" y1="343.541" x2="847.837" y2="354.783"/>
	</g>
	<g id="POLYLINE_334_">
		
			<path fill="none" stroke="#F368E0" stroke-width="2.5" stroke-linecap="round" stroke-linejoin="round" stroke-miterlimit="10" d="    M837.792,229.405c1.417,6.447,2.8,12.903,3.883,19.416c1.15,6.922,2.138,13.856,2.934,20.828    c0.774,6.785,1.308,13.592,1.77,20.405c0.457,6.738,0.713,13.492,0.932,20.241c0.229,7.041,0.302,14.087,0.413,21.13    c0.006,0.376,0.012,0.752,0.018,1.128"/>
	</g>
	<g id="POLYLINE_335_">
		
			<path fill="none" stroke="#F368E0" stroke-width="2.5" stroke-linecap="round" stroke-linejoin="round" stroke-miterlimit="10" d="    M134.156,199.951c5.919,0,11.837,0,17.756,0c6.113,0,12.234,0.092,18.346,0c2.207-0.033,4.318-0.892,5.853-2.498    c1.47-1.538,2.217-3.558,2.239-5.67c0.053-5.073,0-10.149,0-15.222c0-8.622,0-17.244,0-25.867c0-4.794,0.068-9.593,0-14.387    c-0.031-2.168-0.852-4.243-2.405-5.776c-1.555-1.535-3.621-2.309-5.787-2.331c-6.956-0.069-13.917,0-20.874,0    c-0.728,0-1.456,0-2.184,0"/>
	</g>
	<g id="POLYLINE_336_">
		
			<path fill="none" stroke="#F368E0" stroke-width="2.5" stroke-linecap="round" stroke-linejoin="round" stroke-miterlimit="10" d="    M124.14,279.664c-1.557,1.419-3.174,2.859-4.415,4.574c-0.568,0.785-1.029,1.648-1.118,2.629c-0.113,1.236,0.644,2.322,1.8,2.772    c1.095,0.426,2.412,0.293,3.543,0.16"/>
	</g>
	<g id="POLYLINE_337_">
		
			<path fill="none" stroke="#F368E0" stroke-width="2.5" stroke-linecap="round" stroke-linejoin="round" stroke-miterlimit="10" d="    M124.8,261.937c-1.065,0-2.168,0.089-3.229,0c-0.243-0.02-0.465-0.048-0.689-0.151c-0.425-0.196-0.753-0.572-0.888-1.02    c-0.135-0.447-0.07-0.955-0.07-1.411c0-0.604-0.099-1.279,0.041-1.874c0.108-0.457,0.403-0.853,0.816-1.079    c0.243-0.133,0.491-0.177,0.763-0.202c1.162-0.108,2.38,0,3.548,0"/>
	</g>
	<g id="POLYLINE_338_">
		
			<path fill="none" stroke="#F368E0" stroke-width="2.5" stroke-linecap="round" stroke-linejoin="round" stroke-miterlimit="10" d="    M124.757,334.255c-1.739,0-3.656,0.225-4.626-1.548c-0.282-0.515-0.356-1.054-0.365-1.63c-0.02-1.293,0-2.587,0-3.88    c0-4.831,0-9.663,0-14.494c0-1.846,0-3.692,0-5.539c0-0.625-0.066-1.304,0.069-1.921c0.452-2.06,2.297-2.34,4.081-2.34"/>
	</g>
	<g id="POLYLINE_339_">
		
			<path fill="none" stroke="#F368E0" stroke-width="2.5" stroke-linecap="round" stroke-linejoin="round" stroke-miterlimit="10" d="    M224.29,338.095c-3.718,3.225-7.079,6.807-9.965,10.798c-2.831,3.914-5.198,8.162-7.036,12.629    c-1.868,4.54-3.198,9.303-3.938,14.156c-0.74,4.855-0.898,9.794-0.47,14.686c0.421,4.812,1.41,9.573,2.943,14.154    c1.558,4.655,3.669,9.127,6.286,13.281c2.617,4.155,5.73,7.994,9.255,11.413c3.468,3.363,7.331,6.315,11.488,8.777    c4.224,2.502,8.747,4.499,13.444,5.93c4.697,1.431,9.565,2.296,14.466,2.574c4.823,0.274,9.676-0.022,14.43-0.88    c4.837-0.873,9.571-2.325,14.063-4.321c4.503-2,8.766-4.542,12.664-7.555c3.825-2.957,7.303-6.362,10.332-10.131    c3.063-3.809,5.675-7.979,7.754-12.404c2.096-4.46,3.654-9.17,4.632-14c0.96-4.738,1.359-9.59,1.184-14.422    c-0.177-4.886-0.932-9.746-2.253-14.454c-1.331-4.744-3.238-9.326-5.658-13.618c-2.375-4.211-5.248-8.141-8.541-11.68    c-1.624-1.745-3.353-3.376-5.153-4.938"/>
	</g>
	<g id="POLYLINE_340_">
		
			<path fill="none" stroke="#F368E0" stroke-width="2.5" stroke-linecap="round" stroke-linejoin="round" stroke-miterlimit="10" d="    M848.903,343.541c0.98-0.002,1.22-0.865,1.221-1.667c0.001-1.942,0-3.883,0-5.825c0-0.775,0.132-1.671-0.011-2.44    c-0.066-0.353-0.24-0.662-0.548-0.86c-0.146-0.094-0.305-0.148-0.475-0.18c-1-0.193-2.171-0.014-3.185-0.014    c-0.562,0-1.154-0.091-1.604,0.314c-0.275,0.248-0.366,0.553-0.403,0.907c-0.162,1.518,0,3.141,0,4.667    c0,1.277-0.153,2.657,0.001,3.927c0.169,1.394,1.557,1.173,2.628,1.173C847.319,343.541,848.111,343.541,848.903,343.541z"/>
	</g>
	<g id="POLYLINE_341_">
		
			<path fill="none" stroke="#F368E0" stroke-width="2.5" stroke-linecap="round" stroke-linejoin="round" stroke-miterlimit="10" d="    M891.66,336.194c-1.128,5.591-3.743,10.61-7.439,14.938c-1.093,1.28-2.263,2.488-3.48,3.65"/>
	</g>
	<g id="POLYLINE_342_">
		
			<path fill="none" stroke="#F368E0" stroke-width="2.5" stroke-linecap="round" stroke-linejoin="round" stroke-miterlimit="10" d="    M881.645,379.779c0,0.582,0,1.163,0,1.745c0,0.461-0.25,1.836,0,2.228c0.166,0.261,1.194,0.107,1.555,0.107    c3.283,0,6.567,0,9.85,0c2.169,0,4.341,0.037,6.509,0c0.907-0.016,1.824-0.152,2.615-0.625c1.737-1.036,2.066-3.166,2.078-5.014    c0.025-3.995,0-7.992,0-11.987c0-7.135,0-14.27,0-21.404c0-5.26,0-10.521,0-15.781c0-1.955,0.137-4.175-1.068-5.842    c-0.93-1.286-2.628-1.869-4.154-2.024c-1.393-0.142-2.812,0.147-3.896,1.072c-1.157,0.987-1.784,2.445-2.074,3.909    c-0.218,1.097-0.307,2.221-0.433,3.33"/>
	</g>
	<g id="POLYLINE_343_">
		
			<path fill="none" stroke="#F368E0" stroke-width="2.5" stroke-linecap="round" stroke-linejoin="round" stroke-miterlimit="10" d="    M855.671,354.783c0-4.524-0.389-9.279,0.596-13.734c0.79-3.571,2.584-6.896,5.688-8.952c3.114-2.063,6.907-2.597,10.568-2.604    c5.822-0.012,11.644,0,17.466,0c2.236,0,5.054-0.309,5.853,2.404c0.641,2.178-1.036,4.218-3.225,4.297    c-5.486,0.199-11.014,0-16.504,0c-3.004,0-6.249-0.29-9.114,0.805c-1.724,0.659-2.937,1.918-3.624,3.624    c-1.357,3.37-1.003,7.26-1.003,10.806c0,1.118,0,2.236,0,3.354"/>
	</g>
	<g id="POLYLINE_344_">
		
			<path fill="none" stroke="#F368E0" stroke-width="2.5" stroke-linecap="round" stroke-linejoin="round" stroke-miterlimit="10" d="    M910.357,363.289c-0.798-3.833-2.983-7.286-6.104-9.649"/>
	</g>
	<g id="POLYLINE_345_">
		
			<path fill="none" stroke="#F368E0" stroke-width="2.5" stroke-linecap="round" stroke-linejoin="round" stroke-miterlimit="10" d="    M904.19,379.523c3.154-2.364,5.363-5.837,6.167-9.696"/>
	</g>
	<g id="POLYLINE_346_">
		
			<path fill="none" stroke="#F368E0" stroke-width="2.5" stroke-linecap="round" stroke-linejoin="round" stroke-miterlimit="10" d="    M829.685,362.3c5.96,0,11.919,0,17.879,0c10.164,0,20.327,0,30.491,0c3.144,0,6.288,0,9.432,0c0.998,0,2.037-0.069,3.012,0.182    c0.852,0.219,1.603,0.683,2.012,1.48c0.269,0.523,0.357,1.115,0.387,1.696c0.081,1.54,0.055,3.115,0.006,4.657    c-0.077,2.397-1.377,3.715-3.762,3.81c-5.614,0.224-11.279,0.005-16.896,0.005c-10.243,0-20.486,0-30.728,0    c-3.328,0-6.656,0-9.984,0c-1.868,0-3.74,0.023-5.601-0.167c-2.952-0.301-5.999-1.114-6.712-4.368    c-0.883-4.029,3.197-6.152,6.476-6.883C827.004,362.422,828.346,362.301,829.685,362.3z"/>
	</g>
	<g id="POLYLINE_347_">
		
			<line fill="none" stroke="#F368E0" stroke-width="2.5" stroke-linecap="round" stroke-linejoin="round" stroke-miterlimit="10" x1="645.371" y1="359.968" x2="645.371" y2="336.565"/>
	</g>
	<g id="POLYLINE_348_">
		
			<path fill="none" stroke="#F368E0" stroke-width="2.5" stroke-linecap="round" stroke-linejoin="round" stroke-miterlimit="10" d="    M644.591,336.846c1.637-0.004,1.221-2.263,1.221-3.235c0-1.719,0-3.439,0-5.158c0-0.511,0.091-1.107-0.024-1.614    c-0.088-0.387-0.338-0.715-0.705-0.877c-0.213-0.094-0.415-0.091-0.642-0.103c-1.504-0.078-3.034-0.002-4.54,0    c-0.512,0.001-0.984-0.002-1.35,0.411c-0.427,0.482-0.307,1.173-0.307,1.763c0,1.683,0,3.365,0,5.048    c0,0.85-0.118,1.794,0.004,2.638c0.058,0.402,0.243,0.751,0.604,0.961c0.174,0.101,0.353,0.138,0.55,0.164    c1.187,0.153,2.487,0.002,3.683,0.002C643.586,336.846,644.089,336.846,644.591,336.846z"/>
	</g>
	<g id="POLYLINE_349_">
		
			<path fill="none" stroke="#F368E0" stroke-width="2.5" stroke-linecap="round" stroke-linejoin="round" stroke-miterlimit="10" d="    M644.591,199.122c1.637-0.004,1.221-2.263,1.221-3.235c0-1.719,0-3.439,0-5.158c0-0.511,0.091-1.107-0.024-1.614    c-0.088-0.387-0.338-0.715-0.705-0.877c-0.213-0.094-0.415-0.091-0.642-0.103c-1.504-0.078-3.034-0.002-4.54,0    c-0.512,0.001-0.984-0.002-1.35,0.411c-0.427,0.482-0.307,1.173-0.307,1.763c0,1.683,0,3.365,0,5.048    c0,0.85-0.118,1.794,0.004,2.638c0.058,0.402,0.243,0.751,0.604,0.961c0.174,0.101,0.353,0.138,0.55,0.164    c1.187,0.153,2.487,0.002,3.683,0.002C643.586,199.122,644.089,199.122,644.591,199.122z"/>
	</g>
	<g id="POLYLINE_350_">
		
			<line fill="none" stroke="#F368E0" stroke-width="2.5" stroke-linecap="round" stroke-linejoin="round" stroke-miterlimit="10" x1="640.032" y1="359.695" x2="640.032" y2="336.846"/>
	</g>
	<g id="POLYLINE_351_">
		
			<line fill="none" stroke="#F368E0" stroke-width="2.5" stroke-linecap="round" stroke-linejoin="round" stroke-miterlimit="10" x1="640.032" y1="325.859" x2="640.032" y2="199.122"/>
	</g>
	<g id="POLYLINE_352_">
		
			<path fill="none" stroke="#F368E0" stroke-width="2.5" stroke-linecap="round" stroke-linejoin="round" stroke-miterlimit="10" d="    M535.919,248.55c-1.331,1.557-2.725,3.111-3.653,4.954c-0.848,1.685-1.236,3.564-1.406,5.432    c-0.256,2.815-0.266,6.168,1.219,8.693c1.095,1.861,3.044,2.932,5.117,3.35c3.165,0.638,6.509-0.122,9.438-1.345    c3.562-1.488,6.685-3.827,9.192-6.756c2.615-3.054,4.643-6.663,5.811-10.513c0.909-2.997,1.435-6.414,0.543-9.485    c-0.601-2.07-1.942-3.782-3.9-4.717c-2.067-0.987-4.5-1.152-6.737-0.777c-2.943,0.493-5.558,2.027-7.821,3.922    c-0.743,0.622-1.446,1.286-2.138,1.963"/>
	</g>
	<g id="POLYLINE_353_">
		
			<path fill="none" stroke="#F368E0" stroke-width="2.5" stroke-linecap="round" stroke-linejoin="round" stroke-miterlimit="10" d="    M284.347,199.951c2.541-0.001,4.987-1.233,6.498-3.276c1.507-2.038,1.584-4.267,1.584-6.686c0-7.872,0-15.744,0-23.615    c0-8.676,0-17.352,0-26.027c0-2.636,0.337-5.451-0.95-7.865c-1.218-2.284-3.516-3.875-6.082-4.211    c-0.891-0.117-1.807-0.069-2.703-0.069c-2.496,0-4.992,0-7.489,0c-8.688,0-17.377,0-26.065,0c-9.63,0-19.259,0-28.889,0    c-5.753,0-11.507,0-17.26,0c-2.211,0-4.258,0.429-6.001,1.891c-1.868,1.566-2.862,3.861-2.888,6.277    c-0.064,6.092,0,12.187,0,18.279c0,9.449,0,18.898,0,28.347c0,2.684,0,5.368,0,8.052c0,0.984,0.017,1.945,0.273,2.904    c0.672,2.52,2.573,4.604,5.021,5.504c2.349,0.863,5.183,0.496,7.623,0.496c7.723,0,15.446,0,23.169,0c9.845,0,19.689,0,29.534,0    c7.149,0,14.298,0,21.446,0C282.228,199.951,283.287,199.951,284.347,199.951z"/>
	</g>
	<g id="POLYLINE_354_">
		
			<path fill="none" stroke="#F368E0" stroke-width="2.5" stroke-linecap="round" stroke-linejoin="round" stroke-miterlimit="10" d="    M393.402,199.951c3.148-0.003,6.078-1.894,7.37-4.765c1.229-2.731,0.712-6.284,0.712-9.175c0-7.844,0-15.689,0-23.533    c0-7.414,0-14.828,0-22.241c0-2.816,0.332-5.752-1.239-8.252c-1.529-2.433-4.18-3.762-7.017-3.783c-4.148-0.031-8.298,0-12.446,0    c-8.117,0-16.234,0-24.351,0c-8.315,0-16.63,0-24.944,0c-4.847,0-9.695,0-14.542,0c-2.652,0-5.108,0.789-6.867,2.881    c-1.874,2.229-1.896,4.796-1.896,7.535c0,6.861,0,13.721,0,20.582c0,8.204,0,16.408,0,24.612c0,2.346,0,4.692,0,7.038    c0,1.116,0.008,2.205,0.326,3.29c0.881,3.009,3.506,5.285,6.609,5.73c0.912,0.131,1.854,0.082,2.773,0.082    c2.162,0,4.324,0,6.486,0c7.472,0,14.944,0,22.416,0c8.632,0,17.265,0,25.897,0c6.031,0,12.063,0,18.094,0    C391.656,199.951,392.529,199.951,393.402,199.951z"/>
	</g>
	<g id="POLYLINE_355_">
		
			<path fill="none" stroke="#F368E0" stroke-width="2.5" stroke-linecap="round" stroke-linejoin="round" stroke-miterlimit="10" d="    M621.561,199.951c3.148-0.003,6.078-1.894,7.37-4.765c1.229-2.731,0.712-6.284,0.712-9.175c0-7.844,0-15.689,0-23.533    c0-7.414,0-14.828,0-22.241c0-2.816,0.332-5.752-1.239-8.252c-1.529-2.433-4.18-3.762-7.017-3.783c-4.148-0.031-8.298,0-12.446,0    c-8.117,0-16.234,0-24.351,0c-8.315,0-16.63,0-24.944,0c-4.847,0-9.695,0-14.542,0c-2.652,0-5.108,0.789-6.867,2.881    c-1.874,2.229-1.896,4.796-1.896,7.535c0,6.861,0,13.721,0,20.582c0,8.204,0,16.408,0,24.612c0,2.346,0,4.692,0,7.038    c0,1.116,0.008,2.205,0.326,3.29c0.881,3.009,3.506,5.285,6.609,5.73c0.912,0.131,1.854,0.082,2.773,0.082    c2.162,0,4.324,0,6.486,0c7.472,0,14.944,0,22.416,0c8.632,0,17.265,0,25.897,0c6.031,0,12.063,0,18.094,0    C619.815,199.951,620.688,199.951,621.561,199.951z"/>
	</g>
	<g id="POLYLINE_356_">
		
			<path fill="none" stroke="#F368E0" stroke-width="2.5" stroke-linecap="round" stroke-linejoin="round" stroke-miterlimit="10" d="    M430.344,199.951c-3.148-0.003-6.078-1.894-7.37-4.765c-1.229-2.731-0.712-6.284-0.712-9.175c0-7.844,0-15.689,0-23.533    c0-7.414,0-14.828,0-22.241c0-2.816-0.332-5.752,1.239-8.252c1.529-2.433,4.18-3.762,7.017-3.783c4.148-0.031,8.298,0,12.446,0    c8.117,0,16.234,0,24.351,0c8.315,0,16.63,0,24.944,0c4.847,0,9.695,0,14.542,0c2.652,0,5.108,0.789,6.867,2.881    c1.874,2.229,1.896,4.796,1.896,7.535c0,6.861,0,13.721,0,20.582c0,8.204,0,16.408,0,24.612c0,2.346,0,4.692,0,7.038    c0,1.116-0.008,2.205-0.326,3.29c-0.881,3.009-3.506,5.285-6.609,5.73c-0.912,0.131-1.854,0.082-2.773,0.082    c-2.162,0-4.324,0-6.486,0c-7.472,0-14.944,0-22.416,0c-8.632,0-17.265,0-25.897,0c-6.031,0-12.063,0-18.094,0    C432.09,199.951,431.217,199.951,430.344,199.951z"/>
	</g>
	<g id="POLYLINE_357_">
		
			<path fill="none" stroke="#F368E0" stroke-width="2.5" stroke-linecap="round" stroke-linejoin="round" stroke-miterlimit="10" d="    M177.15,371.692c5.06-8.491,10.121-16.983,15.181-25.474c1.102-1.85,2.205-3.7,3.307-5.549c0.363-0.61,0.691-1.364,1.198-1.877    c0.77-0.781,1.772-0.696,2.771-0.696c6.796,0,13.591,0,20.387,0c11.963,0,23.926,0,35.889,0c12.825,0,25.649,0,38.474,0    c9.398,0,18.796,0,28.194,0c2.015,0,4.029-0.003,6.044,0c1.058,0.001,1.895,0.278,2.488,1.219    c1.952,3.096,3.617,6.415,5.415,9.602c3.142,5.571,6.284,11.143,9.425,16.714c1.58,2.802,2.992,5.833,4.797,8.5    c0.549,0.811,1.347,1.078,2.28,1.086c3.138,0.027,6.278,0,9.416,0c6.927,0,13.855,0,20.782,0c9.77,0,19.54,0,29.31,0    c11.829,0,23.659,0,35.488,0c12.893,0,25.787,0,38.68,0c13.14,0,26.281,0,39.421,0c12.575,0,25.149,0,37.724,0    c11.006,0,22.013,0,33.019,0c8.631,0,17.262,0,25.893,0c5.401,0,10.802,0,16.202,0c1.19,0,2.38,0,3.57,0    c0.801,0,1.553-0.068,2.166-0.671c0.472-0.464,0.667-1.052,0.699-1.699c0.107-2.162,0-4.353,0-6.518"/>
	</g>
	<g id="POLYLINE_358_">
		
			<path fill="none" stroke="#F368E0" stroke-width="2.5" stroke-linecap="round" stroke-linejoin="round" stroke-miterlimit="10" d="    M640.073,366.674c-0.883,0-1.766,0-2.648,0c-2.521,0-5.043,0-7.564,0c-3.928,0-7.855,0-11.783,0c-5.13,0-10.261,0-15.392,0    c-6.123,0-12.245,0-18.368,0c-6.934,0-13.868,0-20.802,0c-7.477,0-14.953,0-22.43,0c-7.836,0-15.671,0-23.507,0    c-7.984,0-15.968,0-23.952,0c-7.922,0-15.844,0-23.765,0c-7.649,0-15.297,0-22.946,0c-7.193,0-14.387,0-21.58,0    c-6.467,0-12.934,0-19.401,0c-5.561,0-11.122,0-16.683,0c-4.444,0-8.889,0-13.333,0c-3.127,0-6.254,0-9.38,0    c-1.572,0-3.144,0-4.715,0c-2.391,0-4.925,0.042-7.227-0.693c-1.266-0.405-3.195-1.481-3.354-2.969    c-0.196-1.834,2.042-2.525,3.431-2.814c2.431-0.506,4.945-0.503,7.418-0.503c1.759,0,3.519,0,5.278,0c3.271,0,6.542,0,9.813,0    c4.576,0,9.151,0,13.727,0c5.669,0,11.339,0,17.008,0c6.582,0,13.163,0,19.745,0c7.228,0,14.455,0,21.683,0    c7.688,0,15.377,0,23.065,0c7.939,0,15.877,0,23.816,0c7.978,0,15.956,0,23.935,0c7.807,0,15.614,0,23.421,0    c7.455,0,14.91,0,22.365,0c6.83,0,13.659,0,20.489,0c6.025,0,12.051,0,18.076,0c5.01,0,10.021,0,15.031,0    c3.798,0,7.595,0,11.393,0c2.342,0,4.684,0,7.026,0c1.211,0,2.424-0.011,3.635,0.018c2.099,0.05,4.327,0.123,6.338,0.788    c0.791,0.262,1.641,0.654,2.044,1.427c0.697,1.336-0.373,2.434-1.404,3.194C646.26,366.825,642.778,366.661,640.073,366.674z"/>
	</g>
	<g id="POLYLINE_359_">
		
			<line fill="none" stroke="#F368E0" stroke-width="2.5" stroke-linecap="round" stroke-linejoin="round" stroke-miterlimit="10" x1="411.873" y1="325.859" x2="411.873" y2="199.122"/>
	</g>
	<g id="POLYLINE_360_">
		
			<line fill="none" stroke="#F368E0" stroke-width="2.5" stroke-linecap="round" stroke-linejoin="round" stroke-miterlimit="10" x1="411.873" y1="359.695" x2="411.873" y2="336.846"/>
	</g>
	<g id="POLYLINE_361_">
		
			<path fill="none" stroke="#F368E0" stroke-width="2.5" stroke-linecap="round" stroke-linejoin="round" stroke-miterlimit="10" d="    M407.314,199.122c-1.637-0.004-1.221-2.263-1.221-3.235c0-1.719,0-3.439,0-5.158c0-0.511-0.091-1.107,0.024-1.614    c0.088-0.387,0.338-0.715,0.705-0.877c0.213-0.094,0.415-0.091,0.642-0.103c1.504-0.078,3.034-0.002,4.54,0    c0.512,0.001,0.984-0.002,1.35,0.411c0.427,0.482,0.307,1.173,0.307,1.763c0,1.683,0,3.365,0,5.048    c0,0.85,0.118,1.794-0.004,2.638c-0.058,0.402-0.243,0.751-0.604,0.961c-0.174,0.101-0.353,0.138-0.55,0.164    c-1.187,0.153-2.487,0.002-3.683,0.002C408.319,199.122,407.816,199.122,407.314,199.122z"/>
	</g>
	<g id="POLYLINE_362_">
		
			<path fill="none" stroke="#F368E0" stroke-width="2.5" stroke-linecap="round" stroke-linejoin="round" stroke-miterlimit="10" d="    M407.314,336.846c-1.637-0.004-1.221-2.263-1.221-3.235c0-1.719,0-3.439,0-5.158c0-0.511-0.091-1.107,0.024-1.614    c0.088-0.387,0.338-0.715,0.705-0.877c0.213-0.094,0.415-0.091,0.642-0.103c1.504-0.078,3.034-0.002,4.54,0    c0.512,0.001,0.984-0.002,1.35,0.411c0.427,0.482,0.307,1.173,0.307,1.763c0,1.683,0,3.365,0,5.048    c0,0.85,0.118,1.794-0.004,2.638c-0.058,0.402-0.243,0.751-0.604,0.961c-0.174,0.101-0.353,0.138-0.55,0.164    c-1.187,0.153-2.487,0.002-3.683,0.002C408.319,336.846,407.816,336.846,407.314,336.846z"/>
	</g>
	<g id="POLYLINE_363_">
		
			<path fill="none" stroke="#F368E0" stroke-width="2.5" stroke-linecap="round" stroke-linejoin="round" stroke-miterlimit="10" d="    M533.143,248.55c0-1.14,0-2.281,0-3.421c0-0.413-0.189-1.664,0.096-1.858c0.262-0.178,1.221,0,1.531,0c1.058,0,2.115,0,3.173,0    c5.746,0,11.493,0,17.239,0c0.987,0,1.974,0,2.961,0c0.237,0,1.261-0.156,1.455,0c0.29,0.232,0.071,1.838,0.071,2.245    c0,0.685,0,1.371,0,2.056c0,0.107,0.091,0.894-0.002,0.978c-0.132,0.12-0.885,0-1.062,0c-0.94,0-1.881,0-2.821,0    c-2.76,0-5.519,0-8.279,0C542.717,248.55,537.93,248.55,533.143,248.55z"/>
	</g>
	<g id="POLYLINE_364_">
		
			<path fill="none" stroke="#F368E0" stroke-width="2.5" stroke-linecap="round" stroke-linejoin="round" stroke-miterlimit="10" d="    M660.754,249.927c3.791,3.413,9.695,4.286,14.606,4.171c4.573-0.107,10.103-1.098,13.493-4.472c1.96-1.951,2.451-4.638,0.75-6.926    c-2.643-3.555-7.901-4.801-12.038-5.2c-5.345-0.515-11.759,0.142-16.162,3.503c-0.223,0.17-0.44,0.349-0.648,0.536"/>
	</g>
	<g id="POLYLINE_365_">
		
			<path fill="none" stroke="#F368E0" stroke-width="2.5" stroke-linecap="round" stroke-linejoin="round" stroke-miterlimit="10" d="    M661.356,248.18c0-1.631,0-3.263,0-4.894c8.377,0.276,16.754,0.552,25.131,0.827c0.59,0.019,1.271-0.051,1.852,0.061    c0.487,0.094,0.362,0.001,0.362,0.648c0,0.403,0.245,2.21-0.031,2.458c-0.136,0.122-0.91,0.03-1.08,0.036    c-4.651,0.153-9.302,0.306-13.953,0.459C669.551,247.91,665.444,248.18,661.356,248.18z"/>
	</g>
	<g id="POLYLINE_366_">
		
			<path fill="none" stroke="#F368E0" stroke-width="2.5" stroke-linecap="round" stroke-linejoin="round" stroke-miterlimit="10" d="    M650.552,250.091c-0.416-0.001-0.812-0.22-1.03-0.575c-0.113-0.184-0.152-0.373-0.179-0.583c-0.155-1.221-0.001-2.559-0.001-3.787    c0-1.382-0.566-3.693,1.399-3.771c3.03-0.119,6.119-0.072,9.151,0c0.467,0.011,0.879,0.059,1.194,0.447    c0.606,0.747,0.271,2.213,0.271,3.036c0,1.321,0.143,2.729,0,4.043c-0.023,0.211-0.055,0.4-0.164,0.587    c-0.223,0.383-0.591,0.553-1.015,0.602c-1.056,0.12-2.195,0-3.256,0c-1.786,0-3.572,0-5.358,0    C651.226,250.091,650.889,250.091,650.552,250.091z"/>
	</g>
	<g id="POLYLINE_367_">
		
			<path fill="none" stroke="#F368E0" stroke-width="2.5" stroke-linecap="round" stroke-linejoin="round" stroke-miterlimit="10" d="    M645.371,304.679c3.212,0,6.424,0,9.636,0c7.857,0,15.715,0,23.572,0c9.801,0,19.603,0,29.404,0c9.123,0,18.247,0,27.37,0    c5.803,0,11.607,0,17.41,0c3.34,0,6.677,0.004,9.845,1.239c3.421,1.333,6.059,3.91,7.678,7.185    c3.112,6.294,5.87,12.787,8.796,19.169c1.589,3.466,3.177,6.931,4.766,10.397c0.9,1.964,1.818,3.902,3.136,5.63    c2.436,3.196,5.879,5.343,9.825,6.111c1.337,0.26,2.7,0.372,4.061,0.373"/>
	</g>
	<g id="POLYLINE_368_">
		
			<path fill="none" stroke="#F368E0" stroke-width="2.5" stroke-linecap="round" stroke-linejoin="round" stroke-miterlimit="10" d="    M652.737,372.877c2.224-6.337,4.415-12.685,6.817-18.958c2.352-6.143,4.808-12.316,7.998-18.081    c2.908-5.255,6.674-9.984,11.147-13.995c4.803-4.307,10.425-7.761,16.654-9.548c6.197-1.779,12.719-1.955,19.122-2.061    c6.577-0.108,13.199-0.223,19.764,0.26c6.523,0.48,13.098,1.574,19.123,4.213c5.297,2.32,9.729,5.91,13.421,10.333    c4.201,5.032,7.473,10.803,10.518,16.585c3.436,6.525,6.565,13.217,9.807,19.839c0.424,0.866,0.848,1.733,1.272,2.599    c-3.969,0-7.938,0-11.907,0"/>
	</g>
	<g id="POLYLINE_369_">
		
			<path fill="none" stroke="#F368E0" stroke-width="2.5" stroke-linecap="round" stroke-linejoin="round" stroke-miterlimit="10" d="    M797.368,354.783c2.257,0,4.515,0,6.772,0c5.589,0,11.177,0,16.766,0c7.246,0,14.491,0,21.737,0c7.124,0,14.249,0,21.373,0    c5.342,0,10.685,0,16.027,0c2.302,0,4.629-0.092,6.929,0.041c2.487,0.144,5.166,0.677,7.092,2.37    c1.677,1.474,2.379,3.615,2.783,5.75c0.714,3.773-0.138,8.223-2.029,11.559c-1.3,2.294-3.42,3.864-5.905,4.689    c-1.837,0.61-3.647,0.587-5.55,0.587c-4.639,0-9.277,0-13.916,0c-7.006,0-14.012,0-21.018,0c-7.203,0-14.406,0-21.609,0    c-5.116,0-10.232,0-15.348,0c-2.727,0-5.471,0.069-8.188-0.21c-2.33-0.24-5.001-0.662-6.824-2.282    c-1.312-1.166-2.249-2.871-3.265-4.279c-1.217-1.686-2.149-3.495-3.067-5.356c-1.233-2.498-3.542-5.891-2.8-8.881    c0.479-1.93,2.345-2.882,4.115-3.361C793.368,354.887,795.384,354.798,797.368,354.783z"/>
	</g>
	<g id="POLYLINE_370_">
		
			<path fill="none" stroke="#F368E0" stroke-width="2.5" stroke-linecap="round" stroke-linejoin="round" stroke-miterlimit="10" d="    M910.357,389.334c0-4.603,0-9.206,0-13.808c0-6.344,0-12.689,0-19.033c0-0.306-0.184-1.376,0-1.636    c0.26-0.367,2.606-0.074,3.14-0.074c0.703,0,0.581-0.007,0.581,0.64c0,0.86,0,1.719,0,2.579c0,6.738,0,13.475,0,20.213    c0,2.902,0,5.804,0,8.706c0,0.628,0.164,1.514,0,2.124c-0.014,0.051,0.038,0.251,0,0.29c-0.192,0.195-1.594,0-1.861,0    C911.597,389.334,910.977,389.334,910.357,389.334z"/>
	</g>
	<g id="POLYLINE_371_">
		
			<line fill="none" stroke="#F368E0" stroke-width="2.5" stroke-linecap="round" stroke-linejoin="round" stroke-miterlimit="10" x1="645.371" y1="372.877" x2="658.115" y2="372.877"/>
	</g>
	<g id="POLYLINE_372_">
		
			<path fill="none" stroke="#F368E0" stroke-width="2.5" stroke-linecap="round" stroke-linejoin="round" stroke-miterlimit="10" d="    M253.336,267.581c-1.977-0.001-3.827-1.162-4.685-2.944c-0.41-0.85-0.514-1.733-0.515-2.664c-0.003-3.318,0-6.636,0-9.954    s-0.003-6.636,0-9.954c0.001-0.931,0.105-1.813,0.515-2.664c0.873-1.813,2.697-2.896,4.685-2.944c6.232-0.15,12.486,0,18.72,0    c1.994,0,3.819,0.58,4.976,2.32c0.544,0.818,0.831,1.766,0.868,2.745c0.093,2.444,0.002,4.908,0.002,7.353    c0,3.874,0,7.749,0,11.623c0,1.152,0.109,2.357-0.249,3.472c-0.604,1.882-2.277,3.288-4.235,3.56    c-1.883,0.262-3.904,0.049-5.796,0.049c-3.968,0-7.936,0-11.903,0C254.925,267.581,254.131,267.581,253.336,267.581z"/>
	</g>
	<g id="POLYLINE_373_">
		
			<line fill="none" stroke="#F368E0" stroke-width="2.5" stroke-linecap="round" stroke-linejoin="round" stroke-miterlimit="10" x1="191.262" y1="283.8" x2="243.752" y2="283.8"/>
	</g>
	<g id="POLYLINE_374_">
		
			<line fill="none" stroke="#F368E0" stroke-width="2.5" stroke-linecap="round" stroke-linejoin="round" stroke-miterlimit="10" x1="191.262" y1="275.989" x2="243.752" y2="275.989"/>
	</g>
	<g id="POLYLINE_375_">
		
			<line fill="none" stroke="#F368E0" stroke-width="2.5" stroke-linecap="round" stroke-linejoin="round" stroke-miterlimit="10" x1="191.262" y1="268.179" x2="243.752" y2="268.179"/>
	</g>
	<g id="POLYLINE_376_">
		
			<line fill="none" stroke="#F368E0" stroke-width="2.5" stroke-linecap="round" stroke-linejoin="round" stroke-miterlimit="10" x1="191.262" y1="260.369" x2="243.752" y2="260.369"/>
	</g>
	<g id="POLYLINE_377_">
		
			<line fill="none" stroke="#F368E0" stroke-width="2.5" stroke-linecap="round" stroke-linejoin="round" stroke-miterlimit="10" x1="191.262" y1="252.559" x2="243.752" y2="252.559"/>
	</g>
	<g id="POLYLINE_378_">
		
			<line fill="none" stroke="#F368E0" stroke-width="2.5" stroke-linecap="round" stroke-linejoin="round" stroke-miterlimit="10" x1="191.262" y1="244.748" x2="243.752" y2="244.748"/>
	</g>
	<g id="POLYLINE_379_">
		
			<line fill="none" stroke="#F368E0" stroke-width="2.5" stroke-linecap="round" stroke-linejoin="round" stroke-miterlimit="10" x1="191.262" y1="236.938" x2="243.752" y2="236.938"/>
	</g>
	<g id="POLYLINE_380_">
		
			<line fill="none" stroke="#F368E0" stroke-width="2.5" stroke-linecap="round" stroke-linejoin="round" stroke-miterlimit="10" x1="191.262" y1="229.128" x2="243.752" y2="229.128"/>
	</g>
	<g id="POLYLINE_381_">
		
			<line fill="none" stroke="#F368E0" stroke-width="2.5" stroke-linecap="round" stroke-linejoin="round" stroke-miterlimit="10" x1="191.262" y1="221.318" x2="243.752" y2="221.318"/>
	</g>
	<g id="POLYLINE_382_">
		
			<path fill="none" stroke="#F368E0" stroke-width="2.5" stroke-linecap="round" stroke-linejoin="round" stroke-miterlimit="10" d="    M780.135,384.986c-0.055-6.361-0.982-12.655-2.915-18.723c-1.895-5.945-4.701-11.593-8.287-16.699    c-3.65-5.198-8.112-9.829-13.175-13.665c-5.023-3.806-10.62-6.828-16.554-8.947c-5.874-2.098-12.071-3.29-18.304-3.53    c-6.373-0.246-12.779,0.507-18.923,2.219c-6.014,1.676-11.768,4.274-17.003,7.674c-5.295,3.44-10.056,7.693-14.064,12.573    c-4.025,4.902-7.283,10.427-9.628,16.32c-2.298,5.774-3.718,11.896-4.188,18.093c-0.482,6.359,0.021,12.791,1.505,18.993    c1.46,6.098,3.848,11.964,7.07,17.344c3.221,5.38,7.265,10.255,11.951,14.421c4.767,4.237,10.2,7.717,16.033,10.294    c5.684,2.512,11.752,4.15,17.927,4.85c6.302,0.714,12.71,0.451,18.932-0.783c6.194-1.229,12.191-3.418,17.723-6.462    c5.469-3.009,10.478-6.854,14.793-11.366c4.409-4.609,8.098-9.899,10.89-15.634c2.73-5.608,4.606-11.634,5.529-17.802    C779.902,391.114,780.108,388.059,780.135,384.986z"/>
	</g>
	<g id="POLYLINE_383_">
		
			<path fill="none" stroke="#F368E0" stroke-width="2.5" stroke-linecap="round" stroke-linejoin="round" stroke-miterlimit="10" d="    M757.913,384.986c-0.035-4.064-0.622-8.094-1.864-11.97c-1.216-3.796-2.999-7.397-5.287-10.661    c-2.329-3.323-5.18-6.281-8.412-8.734c-3.2-2.429-6.769-4.364-10.551-5.718c-3.774-1.351-7.752-2.122-11.758-2.276    c-4.063-0.156-8.153,0.318-12.069,1.411c-3.84,1.072-7.503,2.722-10.852,4.884c-3.405,2.198-6.465,4.936-9.036,8.068    c-2.555,3.112-4.63,6.618-6.125,10.357c-1.49,3.727-2.404,7.67-2.71,11.671c-0.31,4.045,0.018,8.142,0.958,12.089    c0.931,3.908,2.462,7.668,4.526,11.115c2.059,3.439,4.644,6.56,7.642,9.221c3.041,2.699,6.503,4.928,10.223,6.569    c3.648,1.609,7.526,2.657,11.486,3.112c4.026,0.463,8.129,0.288,12.104-0.5c3.95-0.783,7.778-2.177,11.306-4.117    c3.516-1.934,6.726-4.402,9.501-7.3c2.806-2.93,5.153-6.304,6.931-9.951c1.76-3.611,2.963-7.488,3.556-11.462    C757.768,388.866,757.896,386.931,757.913,384.986z"/>
	</g>
	<g id="POLYLINE_385_">
		
			<path fill="none" stroke="#F368E0" stroke-width="2.5" stroke-linecap="round" stroke-linejoin="round" stroke-miterlimit="10" d="    M743.881,384.986c-0.025-5.193-1.61-10.31-4.601-14.565c-3-4.267-7.299-7.549-12.21-9.307c-4.912-1.758-10.317-1.95-15.343-0.556    c-4.995,1.385-9.51,4.331-12.799,8.336c-3.289,4.005-5.3,9.007-5.687,14.176c-0.389,5.202,0.85,10.466,3.53,14.942    c2.68,4.476,6.736,8.054,11.505,10.166c4.739,2.099,10.098,2.688,15.182,1.679c5.083-1.008,9.812-3.598,13.391-7.347    c3.602-3.773,5.985-8.628,6.754-13.788C743.648,388.419,743.985,384.986,743.881,384.986z"/>
	</g>
	<g id="POLYLINE_386_">
		
			<path fill="none" stroke="#F368E0" stroke-width="2.5" stroke-linecap="round" stroke-linejoin="round" stroke-miterlimit="10" d="    M749.757,384.986c-0.056-6.447-1.999-12.751-5.729-18.027c-3.702-5.238-9.01-9.259-15.054-11.405    c-6.033-2.142-12.684-2.375-18.85-0.65c-6.143,1.719-11.689,5.33-15.737,10.261c-4.049,4.93-6.512,11.073-7.003,17.433    c-0.495,6.411,1.043,12.917,4.346,18.433c3.303,5.516,8.312,9.943,14.197,12.534c5.838,2.57,12.416,3.298,18.674,2.057    c6.258-1.241,12.06-4.425,16.475-9.029c4.432-4.621,7.367-10.594,8.327-16.924C749.638,388.116,749.743,386.555,749.757,384.986z"/>
	</g>
	<g id="POLYLINE_387_">
		
			<path fill="none" stroke="#F368E0" stroke-width="2.5" stroke-linecap="round" stroke-linejoin="round" stroke-miterlimit="10" d="    M726.804,384.986c-0.003-3.459-2.231-6.629-5.489-7.795c-3.256-1.165-6.994-0.132-9.189,2.541    c-2.195,2.673-2.481,6.541-0.704,9.508c1.777,2.967,5.322,4.541,8.714,3.868c3.38-0.67,6.05-3.46,6.573-6.865    C726.771,385.826,726.803,385.406,726.804,384.986z"/>
	</g>
	<g id="POLYLINE_388_">
		
			<path fill="none" stroke="#F368E0" stroke-width="2.5" stroke-linecap="round" stroke-linejoin="round" stroke-miterlimit="10" d="    M272.534,384.986c-0.003-3.459-2.231-6.629-5.489-7.795c-3.256-1.165-6.994-0.132-9.189,2.541    c-2.195,2.673-2.481,6.541-0.704,9.508c1.777,2.967,5.322,4.541,8.714,3.868c3.38-0.67,6.05-3.46,6.573-6.865    C272.501,385.826,272.533,385.406,272.534,384.986z"/>
	</g>
	<g id="POLYLINE_389_">
		
			<path fill="none" stroke="#F368E0" stroke-width="2.5" stroke-linecap="round" stroke-linejoin="round" stroke-miterlimit="10" d="    M295.487,384.986c-0.056-6.447-1.999-12.751-5.729-18.027c-3.702-5.238-9.01-9.259-15.054-11.405    c-6.033-2.142-12.684-2.375-18.85-0.65c-6.143,1.719-11.689,5.33-15.737,10.261c-4.049,4.93-6.512,11.073-7.003,17.433    c-0.495,6.411,1.043,12.917,4.346,18.433c3.303,5.516,8.312,9.943,14.197,12.534c5.838,2.57,12.416,3.298,18.674,2.057    c6.258-1.241,12.06-4.425,16.475-9.029c4.432-4.621,7.367-10.594,8.327-16.924C295.191,389.281,295.619,384.986,295.487,384.986z"/>
	</g>
	<g id="POLYLINE_390_">
		
			<path fill="none" stroke="#F368E0" stroke-width="2.5" stroke-linecap="round" stroke-linejoin="round" stroke-miterlimit="10" d="    M289.611,384.986c-0.025-5.193-1.61-10.31-4.601-14.565c-3-4.267-7.298-7.549-12.21-9.307c-4.912-1.758-10.317-1.95-15.343-0.556    c-4.995,1.385-9.51,4.331-12.799,8.336c-3.289,4.005-5.3,9.007-5.687,14.176c-0.389,5.202,0.85,10.466,3.53,14.942    c2.68,4.476,6.736,8.054,11.505,10.166c4.739,2.099,10.098,2.688,15.182,1.679c5.083-1.008,9.812-3.598,13.391-7.347    c3.602-3.773,5.985-8.628,6.754-13.788C289.378,388.419,289.715,384.986,289.611,384.986z"/>
	</g>
	<g id="POLYLINE_392_">
		
			<path fill="none" stroke="#F368E0" stroke-width="2.5" stroke-linecap="round" stroke-linejoin="round" stroke-miterlimit="10" d="    M303.643,384.986c-0.035-4.064-0.623-8.094-1.864-11.97c-1.216-3.796-2.999-7.397-5.287-10.661    c-2.329-3.323-5.18-6.281-8.412-8.734c-3.2-2.429-6.769-4.364-10.551-5.718c-3.774-1.351-7.752-2.122-11.757-2.276    c-4.063-0.156-8.153,0.318-12.069,1.411c-3.84,1.072-7.503,2.722-10.852,4.884c-3.405,2.198-6.465,4.936-9.036,8.068    c-2.555,3.112-4.63,6.618-6.125,10.357c-1.49,3.727-2.404,7.67-2.71,11.671c-0.309,4.045,0.018,8.142,0.958,12.089    c0.931,3.908,2.462,7.668,4.526,11.115c2.059,3.439,4.644,6.56,7.642,9.221c3.041,2.699,6.503,4.928,10.223,6.569    c3.648,1.609,7.526,2.657,11.486,3.112c4.026,0.463,8.129,0.288,12.104-0.5c3.95-0.783,7.778-2.177,11.306-4.117    c3.516-1.934,6.726-4.402,9.501-7.3c2.806-2.93,5.153-6.304,6.931-9.951c1.76-3.611,2.963-7.488,3.556-11.462    C303.498,388.866,303.626,386.931,303.643,384.986z"/>
	</g>
	<g id="POLYLINE_394_">
		
			<path fill="none" stroke="#F368E0" stroke-width="2.5" stroke-linecap="round" stroke-linejoin="round" stroke-miterlimit="10" d="    M835.242,213.928c4.083,2.158,8.005,4.582,11.747,7.289c3.799,2.748,7.424,5.743,10.868,8.924    c3.431,3.169,6.684,6.528,9.748,10.053c3.256,3.746,6.297,7.677,9.113,11.765c2.765,4.015,5.323,8.179,7.601,12.49    c0.267,0.506,0.527,1.016,0.791,1.524"/>
	</g>
</g>

</svg>